# xmcd
#
# Track frame offsets:
#	150
#	9950
#	21561
#	30771
#	40833
#	55592
#	64346
#	78073
#	89166
#	101289
#	112902
#	122979
#	131942
#	141146
#	152355
#	164393
#
# Disc length: 2319 seconds
#
# Revision: 0
# Processed by: cddbd v1.5.1PL0 Copyright (c) Steve Scherf et al.
# Submitted via: dBpowerAMP V4.0
#
DISCID=c4090d10
DTITLE=Webb Pierce - Famous Country Music Makers
DYEAR=1900
DGENRE=Country
TTITLE0=In The Jailhouse Now
TTITLE1=Slowly
TTITLE2=I Don't Care
TTITLE3=There Stands The Glass
TTITLE4=Wondering
TTITLE5=I'm Tired
TTITLE6=Back Street Affair
TTITLE7=I'm Walking The Dog
TTITLE8=Memory #1
TTITLE9=Walking The Streets
TTITLE10=Fool, Fool, Fool
TTITLE11=I Ain't Never
TTITLE12=Honk Tonk Song
TTITLE13=More And More
TTITLE14=Sparkling Brown Eyes
TTITLE15=That's Me Without You
EXTD=
EXTT0=
EXTT1=
EXTT2=
EXTT3=
EXTT4=
EXTT5=
EXTT6=
EXTT7=
EXTT8=
EXTT9=
EXTT10=
EXTT11=
EXTT12=
EXTT13=
EXTT14=
EXTT15=
PLAYORDER=
